<mxfile host="app.diagrams.net" modified="2022-11-22T03:58:17.117Z" agent="5.0 (Macintosh; Intel Mac OS X 10_15_7) AppleWebKit/537.36 (KHTML, like Gecko) Chrome/107.0.0.0 Safari/537.36" etag="HO_l7haB8MMsN1KYdo1L" version="20.3.7" type="github" pages="3">
  <diagram name="首页" id="03018318-947c-dd8e-b7a3-06fadd420f32">
    <mxGraphModel dx="1018" dy="618" grid="1" gridSize="10" guides="1" tooltips="1" connect="1" arrows="1" fold="1" page="1" pageScale="1" pageWidth="1100" pageHeight="850" background="#ffffff" math="0" shadow="0">
      <root>
        <mxCell id="0" />
        <mxCell id="1" parent="0" />
        <mxCell id="677b7b8949515195-15" value="" style="whiteSpace=wrap;html=1;rounded=0;shadow=0;labelBackgroundColor=none;strokeWidth=1;fillColor=none;fontFamily=Verdana;fontSize=12;align=center;verticalAlign=top;spacing=10;comic=1;" parent="1" vertex="1">
          <mxGeometry x="240" y="95" width="820" height="80" as="geometry" />
        </mxCell>
        <mxCell id="3hXWcbdi37lOXO7IKSYI-1" value="" style="group" parent="1" vertex="1" connectable="0">
          <mxGeometry x="20" y="20" width="1060" height="670" as="geometry" />
        </mxCell>
        <mxCell id="677b7b8949515195-1" value="" style="whiteSpace=wrap;html=1;rounded=0;shadow=0;labelBackgroundColor=none;strokeColor=#000000;strokeWidth=1;fillColor=none;fontFamily=Verdana;fontSize=12;fontColor=#000000;align=center;comic=1;" parent="3hXWcbdi37lOXO7IKSYI-1" vertex="1">
          <mxGeometry width="1060" height="670" as="geometry" />
        </mxCell>
        <mxCell id="677b7b8949515195-2" value="放心充" style="whiteSpace=wrap;html=1;rounded=0;shadow=0;labelBackgroundColor=none;strokeWidth=1;fontFamily=Verdana;fontSize=28;align=center;comic=1;" parent="3hXWcbdi37lOXO7IKSYI-1" vertex="1">
          <mxGeometry x="10" y="7" width="190" height="50" as="geometry" />
        </mxCell>
        <mxCell id="677b7b8949515195-7" value="退出登陆" style="text;html=1;points=[];align=left;verticalAlign=top;spacingTop=-4;fontSize=14;fontFamily=Verdana" parent="3hXWcbdi37lOXO7IKSYI-1" vertex="1">
          <mxGeometry x="980" y="20" width="60" height="20" as="geometry" />
        </mxCell>
        <mxCell id="677b7b8949515195-8" value="" style="whiteSpace=wrap;html=1;rounded=0;shadow=0;labelBackgroundColor=none;strokeWidth=1;fillColor=none;fontFamily=Verdana;fontSize=12;align=center;comic=1;" parent="3hXWcbdi37lOXO7IKSYI-1" vertex="1">
          <mxGeometry x="5" y="75" width="200" height="585" as="geometry" />
        </mxCell>
        <mxCell id="677b7b8949515195-9" value="" style="line;strokeWidth=1;html=1;rounded=0;shadow=0;labelBackgroundColor=none;fillColor=none;fontFamily=Verdana;fontSize=14;fontColor=#000000;align=center;comic=1;" parent="3hXWcbdi37lOXO7IKSYI-1" vertex="1">
          <mxGeometry y="30" width="1060" height="70" as="geometry" />
        </mxCell>
        <mxCell id="677b7b8949515195-27" value="商户信息" style="text;html=1;points=[];align=left;verticalAlign=top;spacingTop=-4;fontSize=14;fontFamily=Verdana" parent="3hXWcbdi37lOXO7IKSYI-1" vertex="1">
          <mxGeometry x="20" y="85" width="170" height="20" as="geometry" />
        </mxCell>
        <mxCell id="677b7b8949515195-28" value="交易记录" style="text;html=1;points=[];align=left;verticalAlign=top;spacingTop=-4;fontSize=14;fontFamily=Verdana" parent="3hXWcbdi37lOXO7IKSYI-1" vertex="1">
          <mxGeometry x="20" y="110" width="170" height="20" as="geometry" />
        </mxCell>
        <mxCell id="677b7b8949515195-29" value="待处理交易" style="text;html=1;points=[];align=left;verticalAlign=top;spacingTop=-4;fontSize=14;fontFamily=Verdana" parent="3hXWcbdi37lOXO7IKSYI-1" vertex="1">
          <mxGeometry x="20" y="135" width="170" height="20" as="geometry" />
        </mxCell>
        <mxCell id="eQMahWF7AFmGMsRyi7E1-1" value="用户信息" style="text;html=1;points=[];align=left;verticalAlign=top;spacingTop=-4;fontSize=14;fontFamily=Verdana" parent="3hXWcbdi37lOXO7IKSYI-1" vertex="1">
          <mxGeometry x="910" y="20" width="60" height="20" as="geometry" />
        </mxCell>
        <mxCell id="_WKPpyliAkY1smqNMeM3-2" value="入金总额/今日出金" style="whiteSpace=wrap;html=1;rounded=0;shadow=0;labelBackgroundColor=none;strokeWidth=1;fontFamily=Verdana;fontSize=15;align=center;comic=1;" parent="3hXWcbdi37lOXO7IKSYI-1" vertex="1">
          <mxGeometry x="555" y="90" width="130" height="52.5" as="geometry" />
        </mxCell>
        <mxCell id="_WKPpyliAkY1smqNMeM3-6" value="出金总额/今日入金" style="whiteSpace=wrap;html=1;rounded=0;shadow=0;labelBackgroundColor=none;strokeWidth=1;fontFamily=Verdana;fontSize=15;align=center;comic=1;" parent="3hXWcbdi37lOXO7IKSYI-1" vertex="1">
          <mxGeometry x="698" y="90" width="140" height="52.5" as="geometry" />
        </mxCell>
        <mxCell id="_WKPpyliAkY1smqNMeM3-9" value="交易总数/今日交易总数" style="whiteSpace=wrap;html=1;rounded=0;shadow=0;labelBackgroundColor=none;strokeWidth=1;fontFamily=Verdana;fontSize=15;align=center;comic=1;" parent="3hXWcbdi37lOXO7IKSYI-1" vertex="1">
          <mxGeometry x="850" y="90" width="170" height="52.5" as="geometry" />
        </mxCell>
        <mxCell id="qiC388-4bsZkya4-SA9C-8" value="&lt;div style=&quot;text-align: justify&quot;&gt;&lt;font style=&quot;font-size: 50px;&quot;&gt;商户基本信息&lt;/font&gt;&lt;/div&gt;" style="whiteSpace=wrap;html=1;rounded=0;shadow=0;labelBackgroundColor=none;strokeWidth=1;fillColor=none;fontFamily=Verdana;fontSize=12;align=center;verticalAlign=middle;spacing=10;comic=1;" parent="1" vertex="1">
          <mxGeometry x="240" y="280" width="820" height="210" as="geometry" />
        </mxCell>
        <mxCell id="qiC388-4bsZkya4-SA9C-9" value="&lt;div style=&quot;text-align: justify&quot;&gt;&lt;font style=&quot;font-size: 50px;&quot;&gt;商户收单信息列表&lt;/font&gt;&lt;/div&gt;" style="whiteSpace=wrap;html=1;rounded=0;shadow=0;labelBackgroundColor=none;strokeWidth=1;fillColor=none;fontFamily=Verdana;fontSize=12;align=center;verticalAlign=middle;spacing=10;comic=1;" parent="1" vertex="1">
          <mxGeometry x="240" y="500" width="820" height="180" as="geometry" />
        </mxCell>
        <mxCell id="qiC388-4bsZkya4-SA9C-12" value="" style="group" parent="1" vertex="1" connectable="0">
          <mxGeometry x="240" y="190" width="820" height="80" as="geometry" />
        </mxCell>
        <mxCell id="qiC388-4bsZkya4-SA9C-4" value="&lt;div style=&quot;text-align: justify&quot;&gt;&lt;br&gt;&lt;/div&gt;" style="whiteSpace=wrap;html=1;rounded=0;shadow=0;labelBackgroundColor=none;strokeWidth=1;fillColor=none;fontFamily=Verdana;fontSize=12;align=center;verticalAlign=top;spacing=10;comic=1;" parent="qiC388-4bsZkya4-SA9C-12" vertex="1">
          <mxGeometry width="820" height="80" as="geometry" />
        </mxCell>
        <mxCell id="qiC388-4bsZkya4-SA9C-5" value="审核状态" style="whiteSpace=wrap;html=1;rounded=0;shadow=0;labelBackgroundColor=none;strokeWidth=1;fontFamily=Verdana;fontSize=28;align=center;comic=1;" parent="qiC388-4bsZkya4-SA9C-12" vertex="1">
          <mxGeometry x="20" y="12.5" width="190" height="57.5" as="geometry" />
        </mxCell>
        <mxCell id="qiC388-4bsZkya4-SA9C-6" value="上线状态" style="whiteSpace=wrap;html=1;rounded=0;shadow=0;labelBackgroundColor=none;strokeWidth=1;fontFamily=Verdana;fontSize=28;align=center;comic=1;" parent="qiC388-4bsZkya4-SA9C-12" vertex="1">
          <mxGeometry x="315" y="12.5" width="190" height="57.5" as="geometry" />
        </mxCell>
        <mxCell id="qiC388-4bsZkya4-SA9C-7" value="接口权限" style="whiteSpace=wrap;html=1;rounded=0;shadow=0;labelBackgroundColor=none;strokeWidth=1;fontFamily=Verdana;fontSize=28;align=center;comic=1;" parent="qiC388-4bsZkya4-SA9C-12" vertex="1">
          <mxGeometry x="610" y="10" width="190" height="60" as="geometry" />
        </mxCell>
        <mxCell id="qiC388-4bsZkya4-SA9C-13" value="可修改：商户名称、法人信息、联系人信息、公司地址" style="text;html=1;strokeColor=none;fillColor=none;align=center;verticalAlign=middle;whiteSpace=wrap;rounded=0;fontSize=30;fontColor=#FF0000;" parent="1" vertex="1">
          <mxGeometry x="280" y="425" width="740" height="30" as="geometry" />
        </mxCell>
        <mxCell id="qiC388-4bsZkya4-SA9C-1" value="专户可用余额" style="whiteSpace=wrap;html=1;rounded=0;shadow=0;labelBackgroundColor=none;strokeWidth=1;fontFamily=Verdana;fontSize=15;align=center;comic=1;" parent="1" vertex="1">
          <mxGeometry x="260" y="107.5" width="100" height="57.5" as="geometry" />
        </mxCell>
        <mxCell id="qiC388-4bsZkya4-SA9C-2" value="专户保证金" style="whiteSpace=wrap;html=1;rounded=0;shadow=0;labelBackgroundColor=none;strokeWidth=1;fontFamily=Verdana;fontSize=15;align=center;comic=1;" parent="1" vertex="1">
          <mxGeometry x="371" y="107.5" width="100" height="57.5" as="geometry" />
        </mxCell>
        <mxCell id="qiC388-4bsZkya4-SA9C-3" value="专户状态" style="whiteSpace=wrap;html=1;rounded=0;shadow=0;labelBackgroundColor=none;strokeWidth=1;fontFamily=Verdana;fontSize=15;align=center;comic=1;" parent="1" vertex="1">
          <mxGeometry x="483" y="110" width="80" height="55" as="geometry" />
        </mxCell>
      </root>
    </mxGraphModel>
  </diagram>
  <diagram id="sL8mOC1atDpd30I1Fmnk" name="交易记录">
    <mxGraphModel dx="1018" dy="618" grid="1" gridSize="10" guides="1" tooltips="1" connect="1" arrows="1" fold="1" page="1" pageScale="1" pageWidth="827" pageHeight="1169" math="0" shadow="0">
      <root>
        <mxCell id="0" />
        <mxCell id="1" parent="0" />
        <mxCell id="9R8Kou0Ad3H0CnTSNfMK-1" value="" style="group" parent="1" vertex="1" connectable="0">
          <mxGeometry x="30" y="30" width="1060" height="670" as="geometry" />
        </mxCell>
        <mxCell id="9R8Kou0Ad3H0CnTSNfMK-2" value="" style="whiteSpace=wrap;html=1;rounded=0;shadow=0;labelBackgroundColor=none;strokeColor=#000000;strokeWidth=1;fillColor=none;fontFamily=Verdana;fontSize=12;fontColor=#000000;align=center;comic=1;" parent="9R8Kou0Ad3H0CnTSNfMK-1" vertex="1">
          <mxGeometry width="1060" height="670" as="geometry" />
        </mxCell>
        <mxCell id="9R8Kou0Ad3H0CnTSNfMK-3" value="放心充" style="whiteSpace=wrap;html=1;rounded=0;shadow=0;labelBackgroundColor=none;strokeWidth=1;fontFamily=Verdana;fontSize=28;align=center;comic=1;" parent="9R8Kou0Ad3H0CnTSNfMK-1" vertex="1">
          <mxGeometry x="10" y="7" width="190" height="50" as="geometry" />
        </mxCell>
        <mxCell id="9R8Kou0Ad3H0CnTSNfMK-4" value="退出登陆" style="text;html=1;points=[];align=left;verticalAlign=top;spacingTop=-4;fontSize=14;fontFamily=Verdana" parent="9R8Kou0Ad3H0CnTSNfMK-1" vertex="1">
          <mxGeometry x="980" y="20" width="60" height="20" as="geometry" />
        </mxCell>
        <mxCell id="9R8Kou0Ad3H0CnTSNfMK-5" value="" style="whiteSpace=wrap;html=1;rounded=0;shadow=0;labelBackgroundColor=none;strokeWidth=1;fillColor=none;fontFamily=Verdana;fontSize=12;align=center;comic=1;" parent="9R8Kou0Ad3H0CnTSNfMK-1" vertex="1">
          <mxGeometry x="5" y="75" width="200" height="585" as="geometry" />
        </mxCell>
        <mxCell id="9R8Kou0Ad3H0CnTSNfMK-6" value="" style="line;strokeWidth=1;html=1;rounded=0;shadow=0;labelBackgroundColor=none;fillColor=none;fontFamily=Verdana;fontSize=14;fontColor=#000000;align=center;comic=1;" parent="9R8Kou0Ad3H0CnTSNfMK-1" vertex="1">
          <mxGeometry y="30" width="1060" height="70" as="geometry" />
        </mxCell>
        <mxCell id="9R8Kou0Ad3H0CnTSNfMK-7" value="商户信息" style="text;html=1;points=[];align=left;verticalAlign=top;spacingTop=-4;fontSize=14;fontFamily=Verdana" parent="9R8Kou0Ad3H0CnTSNfMK-1" vertex="1">
          <mxGeometry x="20" y="85" width="170" height="20" as="geometry" />
        </mxCell>
        <mxCell id="9R8Kou0Ad3H0CnTSNfMK-8" value="交易记录" style="text;html=1;points=[];align=left;verticalAlign=top;spacingTop=-4;fontSize=14;fontFamily=Verdana" parent="9R8Kou0Ad3H0CnTSNfMK-1" vertex="1">
          <mxGeometry x="20" y="110" width="170" height="20" as="geometry" />
        </mxCell>
        <mxCell id="9R8Kou0Ad3H0CnTSNfMK-9" value="待处理交易" style="text;html=1;points=[];align=left;verticalAlign=top;spacingTop=-4;fontSize=14;fontFamily=Verdana" parent="9R8Kou0Ad3H0CnTSNfMK-1" vertex="1">
          <mxGeometry x="20" y="135" width="170" height="20" as="geometry" />
        </mxCell>
        <mxCell id="9R8Kou0Ad3H0CnTSNfMK-10" value="用户信息" style="text;html=1;points=[];align=left;verticalAlign=top;spacingTop=-4;fontSize=14;fontFamily=Verdana" parent="9R8Kou0Ad3H0CnTSNfMK-1" vertex="1">
          <mxGeometry x="910" y="20" width="60" height="20" as="geometry" />
        </mxCell>
        <mxCell id="Gkg5WCzAM3DOyMTc-4X3-1" value="" style="verticalLabelPosition=bottom;shadow=0;dashed=0;align=center;html=1;verticalAlign=top;strokeWidth=1;shape=mxgraph.mockup.graphics.simpleIcon;strokeColor=#999999;rounded=0;labelBackgroundColor=none;fontFamily=Verdana;fontSize=14;fontColor=#000000;comic=1;" parent="9R8Kou0Ad3H0CnTSNfMK-1" vertex="1">
          <mxGeometry x="220" y="150" width="820" height="510" as="geometry" />
        </mxCell>
        <mxCell id="G6KYMON3EFCgoEFwugsB-1" value="&lt;div style=&quot;text-align: justify&quot;&gt;&lt;br&gt;&lt;/div&gt;" style="whiteSpace=wrap;html=1;rounded=0;shadow=0;labelBackgroundColor=none;strokeWidth=1;fillColor=none;fontFamily=Verdana;fontSize=12;align=center;verticalAlign=middle;spacing=10;comic=1;" parent="9R8Kou0Ad3H0CnTSNfMK-1" vertex="1">
          <mxGeometry x="220" y="75" width="820" height="60" as="geometry" />
        </mxCell>
        <mxCell id="WC5rHdD61bL1Cqfl2ph6-1" value="交易类型、服务商订单号、支付订单号、支付用户手机号、交易时间、交易状态" style="strokeWidth=1;shadow=0;dashed=0;align=center;html=1;shape=mxgraph.mockup.forms.searchBox;strokeColor=#999999;mainText=;strokeColor2=#008cff;fontColor=#666666;fontSize=17;align=left;spacingLeft=3;rounded=0;labelBackgroundColor=none;comic=1;" parent="9R8Kou0Ad3H0CnTSNfMK-1" vertex="1">
          <mxGeometry x="230" y="90" width="800" height="30" as="geometry" />
        </mxCell>
        <mxCell id="G6KYMON3EFCgoEFwugsB-3" value="&lt;div style=&quot;text-align: justify&quot;&gt;&lt;br&gt;&lt;/div&gt;" style="whiteSpace=wrap;html=1;rounded=0;shadow=0;labelBackgroundColor=none;strokeWidth=1;fillColor=none;fontFamily=Verdana;fontSize=12;align=center;verticalAlign=middle;spacing=10;comic=1;" parent="9R8Kou0Ad3H0CnTSNfMK-1" vertex="1">
          <mxGeometry x="220" y="150" width="820" height="40" as="geometry" />
        </mxCell>
        <mxCell id="G6KYMON3EFCgoEFwugsB-4" value="&lt;div style=&quot;text-align: justify&quot;&gt;&lt;font style=&quot;font-size: 15px;&quot;&gt;支付订单号&lt;/font&gt;&lt;/div&gt;" style="whiteSpace=wrap;html=1;rounded=0;shadow=0;labelBackgroundColor=none;strokeWidth=1;fillColor=none;fontFamily=Verdana;fontSize=12;align=center;verticalAlign=middle;spacing=10;comic=1;" parent="9R8Kou0Ad3H0CnTSNfMK-1" vertex="1">
          <mxGeometry x="220" y="150" width="100" height="40" as="geometry" />
        </mxCell>
        <mxCell id="G6KYMON3EFCgoEFwugsB-5" value="&lt;div style=&quot;text-align: justify&quot;&gt;&lt;font style=&quot;font-size: 15px;&quot;&gt;服务商订单号&lt;/font&gt;&lt;/div&gt;" style="whiteSpace=wrap;html=1;rounded=0;shadow=0;labelBackgroundColor=none;strokeWidth=1;fillColor=none;fontFamily=Verdana;fontSize=12;align=center;verticalAlign=middle;spacing=10;comic=1;" parent="9R8Kou0Ad3H0CnTSNfMK-1" vertex="1">
          <mxGeometry x="320" y="150" width="110" height="40" as="geometry" />
        </mxCell>
        <mxCell id="G6KYMON3EFCgoEFwugsB-6" value="&lt;div style=&quot;text-align: justify&quot;&gt;&lt;font style=&quot;font-size: 15px;&quot;&gt;交易金额&lt;/font&gt;&lt;/div&gt;" style="whiteSpace=wrap;html=1;rounded=0;shadow=0;labelBackgroundColor=none;strokeWidth=1;fillColor=none;fontFamily=Verdana;fontSize=12;align=center;verticalAlign=middle;spacing=10;comic=1;" parent="9R8Kou0Ad3H0CnTSNfMK-1" vertex="1">
          <mxGeometry x="430" y="150" width="80" height="40" as="geometry" />
        </mxCell>
        <mxCell id="G6KYMON3EFCgoEFwugsB-7" value="&lt;div style=&quot;text-align: justify&quot;&gt;&lt;font style=&quot;font-size: 15px;&quot;&gt;用户手机前三后四&lt;/font&gt;&lt;/div&gt;" style="whiteSpace=wrap;html=1;rounded=0;shadow=0;labelBackgroundColor=none;strokeWidth=1;fillColor=none;fontFamily=Verdana;fontSize=12;align=center;verticalAlign=middle;spacing=10;comic=1;" parent="9R8Kou0Ad3H0CnTSNfMK-1" vertex="1">
          <mxGeometry x="510" y="150" width="80" height="40" as="geometry" />
        </mxCell>
        <mxCell id="G6KYMON3EFCgoEFwugsB-8" value="&lt;div style=&quot;text-align: justify&quot;&gt;&lt;font style=&quot;font-size: 15px;&quot;&gt;交易类型&lt;/font&gt;&lt;/div&gt;" style="whiteSpace=wrap;html=1;rounded=0;shadow=0;labelBackgroundColor=none;strokeWidth=1;fillColor=none;fontFamily=Verdana;fontSize=12;align=center;verticalAlign=middle;spacing=10;comic=1;" parent="9R8Kou0Ad3H0CnTSNfMK-1" vertex="1">
          <mxGeometry x="590" y="150" width="80" height="40" as="geometry" />
        </mxCell>
        <mxCell id="G6KYMON3EFCgoEFwugsB-9" value="&lt;div style=&quot;text-align: justify&quot;&gt;&lt;font style=&quot;font-size: 15px;&quot;&gt;交易状态&lt;/font&gt;&lt;/div&gt;" style="whiteSpace=wrap;html=1;rounded=0;shadow=0;labelBackgroundColor=none;strokeWidth=1;fillColor=none;fontFamily=Verdana;fontSize=12;align=center;verticalAlign=middle;spacing=10;comic=1;" parent="9R8Kou0Ad3H0CnTSNfMK-1" vertex="1">
          <mxGeometry x="670" y="150" width="80" height="40" as="geometry" />
        </mxCell>
        <mxCell id="G6KYMON3EFCgoEFwugsB-11" value="&lt;div style=&quot;text-align: justify&quot;&gt;&lt;span style=&quot;font-size: 15px;&quot;&gt;监管机构&lt;/span&gt;&lt;/div&gt;" style="whiteSpace=wrap;html=1;rounded=0;shadow=0;labelBackgroundColor=none;strokeWidth=1;fillColor=none;fontFamily=Verdana;fontSize=12;align=center;verticalAlign=middle;spacing=10;comic=1;" parent="9R8Kou0Ad3H0CnTSNfMK-1" vertex="1">
          <mxGeometry x="750" y="150" width="80" height="40" as="geometry" />
        </mxCell>
        <mxCell id="G6KYMON3EFCgoEFwugsB-13" value="&lt;div style=&quot;text-align: justify&quot;&gt;&lt;span style=&quot;font-size: 15px;&quot;&gt;操作&lt;br&gt;交易详情、原交易信息&lt;/span&gt;&lt;/div&gt;" style="whiteSpace=wrap;html=1;rounded=0;shadow=0;labelBackgroundColor=none;strokeWidth=1;fillColor=none;fontFamily=Verdana;fontSize=12;align=center;verticalAlign=middle;spacing=10;comic=1;" parent="9R8Kou0Ad3H0CnTSNfMK-1" vertex="1">
          <mxGeometry x="830" y="150" width="210" height="40" as="geometry" />
        </mxCell>
        <mxCell id="D0iATqVrn0SmlrEWO0X5-1" value="&lt;div style=&quot;font-size: 15px;&quot;&gt;&lt;font style=&quot;font-size: 15px;&quot;&gt;&lt;br&gt;&lt;/font&gt;&lt;/div&gt;&lt;div style=&quot;font-size: 15px;&quot;&gt;&lt;font style=&quot;font-size: 15px;&quot;&gt;&lt;br&gt;&lt;/font&gt;&lt;/div&gt;&lt;div style=&quot;font-size: 15px;&quot;&gt;&lt;font style=&quot;font-size: 15px;&quot;&gt;&lt;br&gt;&lt;/font&gt;&lt;/div&gt;&lt;div style=&quot;font-size: 15px;&quot;&gt;&lt;font style=&quot;font-size: 15px;&quot;&gt;比列表数据多出&lt;br&gt;监管账号信息&lt;/font&gt;&lt;/div&gt;&lt;div style=&quot;font-size: 15px;&quot;&gt;&lt;font style=&quot;font-size: 15px;&quot;&gt;结算账号信息&lt;/font&gt;&lt;/div&gt;&lt;div style=&quot;font-size: 15px;&quot;&gt;&lt;font style=&quot;font-size: 15px;&quot;&gt;收单账号信息&lt;br&gt;请求时间&lt;/font&gt;&lt;/div&gt;&lt;div style=&quot;font-size: 15px;&quot;&gt;&lt;font style=&quot;font-size: 15px;&quot;&gt;借贷属性&lt;/font&gt;&lt;/div&gt;&lt;div style=&quot;font-size: 15px;&quot;&gt;&lt;font style=&quot;font-size: 15px;&quot;&gt;用户确认时间&lt;br&gt;用户头像&lt;br&gt;用户名&lt;/font&gt;&lt;/div&gt;&lt;div style=&quot;font-size: 15px;&quot;&gt;&lt;br&gt;&lt;/div&gt;" style="whiteSpace=wrap;html=1;rounded=0;shadow=0;labelBackgroundColor=none;strokeWidth=1;fillColor=none;fontFamily=Verdana;fontSize=12;align=left;verticalAlign=top;spacing=10;comic=1;" parent="1" vertex="1">
          <mxGeometry x="30" y="770" width="470" height="350" as="geometry" />
        </mxCell>
        <mxCell id="D0iATqVrn0SmlrEWO0X5-2" value="&lt;div style=&quot;&quot;&gt;&lt;font style=&quot;font-size: 15px;&quot;&gt;交易详情模态框&lt;/font&gt;&lt;/div&gt;" style="whiteSpace=wrap;html=1;rounded=0;shadow=0;labelBackgroundColor=none;strokeWidth=1;fillColor=none;fontFamily=Verdana;fontSize=12;align=left;verticalAlign=middle;spacing=10;comic=1;" parent="1" vertex="1">
          <mxGeometry x="30" y="770" width="470" height="40" as="geometry" />
        </mxCell>
        <mxCell id="D0iATqVrn0SmlrEWO0X5-3" value="&lt;div style=&quot;font-size: 15px;&quot;&gt;&lt;font style=&quot;font-size: 15px;&quot;&gt;&lt;br&gt;&lt;/font&gt;&lt;/div&gt;&lt;div style=&quot;font-size: 15px;&quot;&gt;&lt;font style=&quot;font-size: 15px;&quot;&gt;&lt;br&gt;&lt;/font&gt;&lt;/div&gt;&lt;div style=&quot;font-size: 15px;&quot;&gt;&lt;font style=&quot;font-size: 15px;&quot;&gt;&lt;br&gt;&lt;/font&gt;&lt;/div&gt;&lt;div style=&quot;font-size: 15px;&quot;&gt;&lt;br&gt;&lt;/div&gt;&lt;div style=&quot;font-size: 15px;&quot;&gt;原订单支付订单号&lt;br&gt;原订单服务商订单号&lt;br&gt;&lt;/div&gt;&lt;div style=&quot;font-size: 15px;&quot;&gt;交易金额&lt;br&gt;交易时间&lt;/div&gt;&lt;div style=&quot;font-size: 15px;&quot;&gt;支付时间&lt;/div&gt;&lt;div style=&quot;font-size: 15px;&quot;&gt;收款商户号&lt;br&gt;收单机构名称&lt;br&gt;支付用户信息&lt;/div&gt;" style="whiteSpace=wrap;html=1;rounded=0;shadow=0;labelBackgroundColor=none;strokeWidth=1;fillColor=none;fontFamily=Verdana;fontSize=12;align=left;verticalAlign=top;spacing=10;comic=1;" parent="1" vertex="1">
          <mxGeometry x="620" y="770" width="470" height="350" as="geometry" />
        </mxCell>
        <mxCell id="D0iATqVrn0SmlrEWO0X5-4" value="&lt;div style=&quot;&quot;&gt;&lt;font style=&quot;font-size: 15px;&quot;&gt;原交易信息模态框（只有非充值交易有）&lt;/font&gt;&lt;/div&gt;" style="whiteSpace=wrap;html=1;rounded=0;shadow=0;labelBackgroundColor=none;strokeWidth=1;fillColor=none;fontFamily=Verdana;fontSize=12;align=left;verticalAlign=middle;spacing=10;comic=1;" parent="1" vertex="1">
          <mxGeometry x="620" y="770" width="470" height="40" as="geometry" />
        </mxCell>
      </root>
    </mxGraphModel>
  </diagram>
  <diagram id="ZzITcAPFI4M24Hu60K97" name="待处理交易">
    <mxGraphModel dx="1018" dy="618" grid="1" gridSize="10" guides="1" tooltips="1" connect="1" arrows="1" fold="1" page="1" pageScale="1" pageWidth="827" pageHeight="1169" math="0" shadow="0">
      <root>
        <mxCell id="0" />
        <mxCell id="1" parent="0" />
        <mxCell id="aE-AudiO0rde04Mhuk1X-1" value="" style="group" parent="1" vertex="1" connectable="0">
          <mxGeometry x="30" y="30" width="1060" height="670" as="geometry" />
        </mxCell>
        <mxCell id="aE-AudiO0rde04Mhuk1X-2" value="" style="whiteSpace=wrap;html=1;rounded=0;shadow=0;labelBackgroundColor=none;strokeColor=#000000;strokeWidth=1;fillColor=none;fontFamily=Verdana;fontSize=12;fontColor=#000000;align=center;comic=1;" parent="aE-AudiO0rde04Mhuk1X-1" vertex="1">
          <mxGeometry width="1060" height="670" as="geometry" />
        </mxCell>
        <mxCell id="aE-AudiO0rde04Mhuk1X-3" value="放心充" style="whiteSpace=wrap;html=1;rounded=0;shadow=0;labelBackgroundColor=none;strokeWidth=1;fontFamily=Verdana;fontSize=28;align=center;comic=1;" parent="aE-AudiO0rde04Mhuk1X-1" vertex="1">
          <mxGeometry x="10" y="7" width="190" height="50" as="geometry" />
        </mxCell>
        <mxCell id="aE-AudiO0rde04Mhuk1X-4" value="退出登陆" style="text;html=1;points=[];align=left;verticalAlign=top;spacingTop=-4;fontSize=14;fontFamily=Verdana" parent="aE-AudiO0rde04Mhuk1X-1" vertex="1">
          <mxGeometry x="980" y="20" width="60" height="20" as="geometry" />
        </mxCell>
        <mxCell id="aE-AudiO0rde04Mhuk1X-5" value="" style="whiteSpace=wrap;html=1;rounded=0;shadow=0;labelBackgroundColor=none;strokeWidth=1;fillColor=none;fontFamily=Verdana;fontSize=12;align=center;comic=1;" parent="aE-AudiO0rde04Mhuk1X-1" vertex="1">
          <mxGeometry x="5" y="75" width="200" height="585" as="geometry" />
        </mxCell>
        <mxCell id="aE-AudiO0rde04Mhuk1X-6" value="" style="line;strokeWidth=1;html=1;rounded=0;shadow=0;labelBackgroundColor=none;fillColor=none;fontFamily=Verdana;fontSize=14;fontColor=#000000;align=center;comic=1;" parent="aE-AudiO0rde04Mhuk1X-1" vertex="1">
          <mxGeometry y="30" width="1060" height="70" as="geometry" />
        </mxCell>
        <mxCell id="aE-AudiO0rde04Mhuk1X-7" value="商户信息" style="text;html=1;points=[];align=left;verticalAlign=top;spacingTop=-4;fontSize=14;fontFamily=Verdana" parent="aE-AudiO0rde04Mhuk1X-1" vertex="1">
          <mxGeometry x="20" y="85" width="170" height="20" as="geometry" />
        </mxCell>
        <mxCell id="aE-AudiO0rde04Mhuk1X-8" value="交易记录" style="text;html=1;points=[];align=left;verticalAlign=top;spacingTop=-4;fontSize=14;fontFamily=Verdana" parent="aE-AudiO0rde04Mhuk1X-1" vertex="1">
          <mxGeometry x="20" y="110" width="170" height="20" as="geometry" />
        </mxCell>
        <mxCell id="aE-AudiO0rde04Mhuk1X-9" value="待处理交易" style="text;html=1;points=[];align=left;verticalAlign=top;spacingTop=-4;fontSize=14;fontFamily=Verdana" parent="aE-AudiO0rde04Mhuk1X-1" vertex="1">
          <mxGeometry x="20" y="135" width="170" height="20" as="geometry" />
        </mxCell>
        <mxCell id="aE-AudiO0rde04Mhuk1X-10" value="用户信息" style="text;html=1;points=[];align=left;verticalAlign=top;spacingTop=-4;fontSize=14;fontFamily=Verdana" parent="aE-AudiO0rde04Mhuk1X-1" vertex="1">
          <mxGeometry x="910" y="20" width="60" height="20" as="geometry" />
        </mxCell>
        <mxCell id="aE-AudiO0rde04Mhuk1X-11" value="" style="verticalLabelPosition=bottom;shadow=0;dashed=0;align=center;html=1;verticalAlign=top;strokeWidth=1;shape=mxgraph.mockup.graphics.simpleIcon;strokeColor=#999999;rounded=0;labelBackgroundColor=none;fontFamily=Verdana;fontSize=14;fontColor=#000000;comic=1;" parent="aE-AudiO0rde04Mhuk1X-1" vertex="1">
          <mxGeometry x="220" y="150" width="820" height="510" as="geometry" />
        </mxCell>
        <mxCell id="aE-AudiO0rde04Mhuk1X-12" value="&lt;div style=&quot;text-align: justify&quot;&gt;&lt;br&gt;&lt;/div&gt;" style="whiteSpace=wrap;html=1;rounded=0;shadow=0;labelBackgroundColor=none;strokeWidth=1;fillColor=none;fontFamily=Verdana;fontSize=12;align=center;verticalAlign=middle;spacing=10;comic=1;" parent="aE-AudiO0rde04Mhuk1X-1" vertex="1">
          <mxGeometry x="220" y="75" width="820" height="60" as="geometry" />
        </mxCell>
        <mxCell id="aE-AudiO0rde04Mhuk1X-13" value="交易类型、服务商订单号、支付订单号、支付用户手机号、交易时间、交易状态" style="strokeWidth=1;shadow=0;dashed=0;align=center;html=1;shape=mxgraph.mockup.forms.searchBox;strokeColor=#999999;mainText=;strokeColor2=#008cff;fontColor=#666666;fontSize=17;align=left;spacingLeft=3;rounded=0;labelBackgroundColor=none;comic=1;" parent="aE-AudiO0rde04Mhuk1X-1" vertex="1">
          <mxGeometry x="230" y="90" width="800" height="30" as="geometry" />
        </mxCell>
        <mxCell id="aE-AudiO0rde04Mhuk1X-14" value="&lt;div style=&quot;text-align: justify&quot;&gt;&lt;br&gt;&lt;/div&gt;" style="whiteSpace=wrap;html=1;rounded=0;shadow=0;labelBackgroundColor=none;strokeWidth=1;fillColor=none;fontFamily=Verdana;fontSize=12;align=center;verticalAlign=middle;spacing=10;comic=1;" parent="aE-AudiO0rde04Mhuk1X-1" vertex="1">
          <mxGeometry x="220" y="150" width="820" height="40" as="geometry" />
        </mxCell>
        <mxCell id="aE-AudiO0rde04Mhuk1X-15" value="&lt;div style=&quot;text-align: justify&quot;&gt;&lt;font style=&quot;font-size: 15px;&quot;&gt;支付订单号&lt;/font&gt;&lt;/div&gt;" style="whiteSpace=wrap;html=1;rounded=0;shadow=0;labelBackgroundColor=none;strokeWidth=1;fillColor=none;fontFamily=Verdana;fontSize=12;align=center;verticalAlign=middle;spacing=10;comic=1;" parent="aE-AudiO0rde04Mhuk1X-1" vertex="1">
          <mxGeometry x="220" y="150" width="100" height="40" as="geometry" />
        </mxCell>
        <mxCell id="aE-AudiO0rde04Mhuk1X-16" value="&lt;div style=&quot;text-align: justify&quot;&gt;&lt;font style=&quot;font-size: 15px;&quot;&gt;服务商订单号&lt;/font&gt;&lt;/div&gt;" style="whiteSpace=wrap;html=1;rounded=0;shadow=0;labelBackgroundColor=none;strokeWidth=1;fillColor=none;fontFamily=Verdana;fontSize=12;align=center;verticalAlign=middle;spacing=10;comic=1;" parent="aE-AudiO0rde04Mhuk1X-1" vertex="1">
          <mxGeometry x="320" y="150" width="110" height="40" as="geometry" />
        </mxCell>
        <mxCell id="aE-AudiO0rde04Mhuk1X-17" value="&lt;div style=&quot;text-align: justify&quot;&gt;&lt;font style=&quot;font-size: 15px;&quot;&gt;交易金额&lt;/font&gt;&lt;/div&gt;" style="whiteSpace=wrap;html=1;rounded=0;shadow=0;labelBackgroundColor=none;strokeWidth=1;fillColor=none;fontFamily=Verdana;fontSize=12;align=center;verticalAlign=middle;spacing=10;comic=1;" parent="aE-AudiO0rde04Mhuk1X-1" vertex="1">
          <mxGeometry x="430" y="150" width="80" height="40" as="geometry" />
        </mxCell>
        <mxCell id="aE-AudiO0rde04Mhuk1X-18" value="&lt;div style=&quot;text-align: justify&quot;&gt;&lt;font style=&quot;font-size: 15px;&quot;&gt;用户手机前三后四&lt;/font&gt;&lt;/div&gt;" style="whiteSpace=wrap;html=1;rounded=0;shadow=0;labelBackgroundColor=none;strokeWidth=1;fillColor=none;fontFamily=Verdana;fontSize=12;align=center;verticalAlign=middle;spacing=10;comic=1;" parent="aE-AudiO0rde04Mhuk1X-1" vertex="1">
          <mxGeometry x="510" y="150" width="80" height="40" as="geometry" />
        </mxCell>
        <mxCell id="aE-AudiO0rde04Mhuk1X-19" value="&lt;div style=&quot;text-align: justify&quot;&gt;&lt;font style=&quot;font-size: 15px;&quot;&gt;交易类型&lt;/font&gt;&lt;/div&gt;" style="whiteSpace=wrap;html=1;rounded=0;shadow=0;labelBackgroundColor=none;strokeWidth=1;fillColor=none;fontFamily=Verdana;fontSize=12;align=center;verticalAlign=middle;spacing=10;comic=1;" parent="aE-AudiO0rde04Mhuk1X-1" vertex="1">
          <mxGeometry x="590" y="150" width="80" height="40" as="geometry" />
        </mxCell>
        <mxCell id="aE-AudiO0rde04Mhuk1X-20" value="&lt;div style=&quot;text-align: justify&quot;&gt;&lt;font style=&quot;font-size: 15px;&quot;&gt;交易状态&lt;/font&gt;&lt;/div&gt;" style="whiteSpace=wrap;html=1;rounded=0;shadow=0;labelBackgroundColor=none;strokeWidth=1;fillColor=none;fontFamily=Verdana;fontSize=12;align=center;verticalAlign=middle;spacing=10;comic=1;" parent="aE-AudiO0rde04Mhuk1X-1" vertex="1">
          <mxGeometry x="670" y="150" width="80" height="40" as="geometry" />
        </mxCell>
        <mxCell id="aE-AudiO0rde04Mhuk1X-21" value="&lt;div style=&quot;text-align: justify&quot;&gt;&lt;span style=&quot;font-size: 15px;&quot;&gt;监管机构&lt;/span&gt;&lt;/div&gt;" style="whiteSpace=wrap;html=1;rounded=0;shadow=0;labelBackgroundColor=none;strokeWidth=1;fillColor=none;fontFamily=Verdana;fontSize=12;align=center;verticalAlign=middle;spacing=10;comic=1;" parent="aE-AudiO0rde04Mhuk1X-1" vertex="1">
          <mxGeometry x="750" y="150" width="80" height="40" as="geometry" />
        </mxCell>
        <mxCell id="aE-AudiO0rde04Mhuk1X-22" value="&lt;div style=&quot;text-align: justify&quot;&gt;&lt;span style=&quot;font-size: 15px;&quot;&gt;操作&lt;br&gt;交易详情、原交易信息&lt;/span&gt;&lt;/div&gt;" style="whiteSpace=wrap;html=1;rounded=0;shadow=0;labelBackgroundColor=none;strokeWidth=1;fillColor=none;fontFamily=Verdana;fontSize=12;align=center;verticalAlign=middle;spacing=10;comic=1;" parent="aE-AudiO0rde04Mhuk1X-1" vertex="1">
          <mxGeometry x="830" y="150" width="210" height="40" as="geometry" />
        </mxCell>
        <mxCell id="aE-AudiO0rde04Mhuk1X-29" value="" style="group" parent="1" vertex="1" connectable="0">
          <mxGeometry x="990" y="770" width="470" height="350" as="geometry" />
        </mxCell>
        <mxCell id="aE-AudiO0rde04Mhuk1X-27" value="&lt;div style=&quot;font-size: 15px;&quot;&gt;&lt;font style=&quot;font-size: 15px;&quot;&gt;&lt;br&gt;&lt;/font&gt;&lt;/div&gt;&lt;div style=&quot;font-size: 15px;&quot;&gt;&lt;font style=&quot;font-size: 15px;&quot;&gt;&lt;br&gt;&lt;/font&gt;&lt;/div&gt;&lt;div style=&quot;font-size: 15px;&quot;&gt;&lt;font style=&quot;font-size: 15px;&quot;&gt;&lt;br&gt;&lt;/font&gt;&lt;/div&gt;&lt;div style=&quot;font-size: 15px;&quot;&gt;&lt;br&gt;&lt;/div&gt;&lt;div style=&quot;font-size: 15px;&quot;&gt;原订单支付订单号&lt;br&gt;原订单服务商订单号&lt;br&gt;&lt;/div&gt;&lt;div style=&quot;font-size: 15px;&quot;&gt;交易金额&lt;br&gt;交易时间&lt;/div&gt;&lt;div style=&quot;font-size: 15px;&quot;&gt;支付时间&lt;/div&gt;&lt;div style=&quot;font-size: 15px;&quot;&gt;收款商户号&lt;br&gt;收单机构名称&lt;br&gt;支付用户信息&lt;/div&gt;" style="whiteSpace=wrap;html=1;rounded=0;shadow=0;labelBackgroundColor=none;strokeWidth=1;fillColor=none;fontFamily=Verdana;fontSize=12;align=left;verticalAlign=top;spacing=10;comic=1;" parent="aE-AudiO0rde04Mhuk1X-29" vertex="1">
          <mxGeometry width="470" height="350" as="geometry" />
        </mxCell>
        <mxCell id="aE-AudiO0rde04Mhuk1X-28" value="&lt;div style=&quot;&quot;&gt;&lt;font style=&quot;font-size: 15px;&quot;&gt;交易处理模态框（只有非充值交易有）&lt;/font&gt;&lt;/div&gt;" style="whiteSpace=wrap;html=1;rounded=0;shadow=0;labelBackgroundColor=none;strokeWidth=1;fillColor=none;fontFamily=Verdana;fontSize=12;align=left;verticalAlign=middle;spacing=10;comic=1;" parent="aE-AudiO0rde04Mhuk1X-29" vertex="1">
          <mxGeometry width="470" height="40" as="geometry" />
        </mxCell>
        <mxCell id="aE-AudiO0rde04Mhuk1X-32" value="&lt;div style=&quot;text-align: justify&quot;&gt;&lt;br&gt;&lt;/div&gt;" style="whiteSpace=wrap;html=1;rounded=0;shadow=0;labelBackgroundColor=none;strokeWidth=1;fillColor=none;fontFamily=Verdana;fontSize=12;align=center;verticalAlign=middle;spacing=10;comic=1;" parent="aE-AudiO0rde04Mhuk1X-29" vertex="1">
          <mxGeometry y="310" width="470" height="40" as="geometry" />
        </mxCell>
        <mxCell id="aE-AudiO0rde04Mhuk1X-33" value="&lt;div style=&quot;text-align: justify&quot;&gt;&lt;font style=&quot;font-size: 15px;&quot;&gt;关闭交易&lt;/font&gt;&lt;/div&gt;" style="whiteSpace=wrap;html=1;rounded=0;shadow=0;labelBackgroundColor=none;strokeWidth=1;fillColor=none;fontFamily=Verdana;fontSize=12;align=center;verticalAlign=middle;spacing=10;comic=1;" parent="aE-AudiO0rde04Mhuk1X-29" vertex="1">
          <mxGeometry x="201" y="310" width="90" height="40" as="geometry" />
        </mxCell>
        <mxCell id="aE-AudiO0rde04Mhuk1X-34" value="&lt;div style=&quot;text-align: justify&quot;&gt;&lt;font style=&quot;font-size: 15px;&quot;&gt;重新发起&lt;/font&gt;&lt;/div&gt;" style="whiteSpace=wrap;html=1;rounded=0;shadow=0;labelBackgroundColor=none;strokeWidth=1;fillColor=none;fontFamily=Verdana;fontSize=12;align=center;verticalAlign=middle;spacing=10;comic=1;" parent="aE-AudiO0rde04Mhuk1X-29" vertex="1">
          <mxGeometry x="370" y="310" width="100" height="40" as="geometry" />
        </mxCell>
        <mxCell id="aE-AudiO0rde04Mhuk1X-35" value="&lt;div style=&quot;text-align: justify&quot;&gt;&lt;font style=&quot;font-size: 15px;&quot;&gt;取消&lt;/font&gt;&lt;/div&gt;" style="whiteSpace=wrap;html=1;rounded=0;shadow=0;labelBackgroundColor=none;strokeWidth=1;fillColor=none;fontFamily=Verdana;fontSize=12;align=center;verticalAlign=middle;spacing=10;comic=1;" parent="aE-AudiO0rde04Mhuk1X-29" vertex="1">
          <mxGeometry x="130" y="310" width="71" height="40" as="geometry" />
        </mxCell>
        <mxCell id="JHju6j1BQdr5aZoLgNZ8-1" value="&lt;div style=&quot;text-align: justify&quot;&gt;&lt;font style=&quot;font-size: 15px;&quot;&gt;部分退卡&lt;/font&gt;&lt;/div&gt;" style="whiteSpace=wrap;html=1;rounded=0;shadow=0;labelBackgroundColor=none;strokeWidth=1;fillColor=none;fontFamily=Verdana;fontSize=12;align=center;verticalAlign=middle;spacing=10;comic=1;" parent="aE-AudiO0rde04Mhuk1X-29" vertex="1">
          <mxGeometry x="290" y="310" width="80" height="40" as="geometry" />
        </mxCell>
        <mxCell id="aE-AudiO0rde04Mhuk1X-30" value="" style="group" parent="1" vertex="1" connectable="0">
          <mxGeometry x="510" y="770" width="470" height="350" as="geometry" />
        </mxCell>
        <mxCell id="aE-AudiO0rde04Mhuk1X-25" value="&lt;div style=&quot;font-size: 15px;&quot;&gt;&lt;font style=&quot;font-size: 15px;&quot;&gt;&lt;br&gt;&lt;/font&gt;&lt;/div&gt;&lt;div style=&quot;font-size: 15px;&quot;&gt;&lt;font style=&quot;font-size: 15px;&quot;&gt;&lt;br&gt;&lt;/font&gt;&lt;/div&gt;&lt;div style=&quot;font-size: 15px;&quot;&gt;&lt;font style=&quot;font-size: 15px;&quot;&gt;&lt;br&gt;&lt;/font&gt;&lt;/div&gt;&lt;div style=&quot;font-size: 15px;&quot;&gt;&lt;br&gt;&lt;/div&gt;&lt;div style=&quot;font-size: 15px;&quot;&gt;原订单支付订单号&lt;br&gt;原订单服务商订单号&lt;br&gt;&lt;/div&gt;&lt;div style=&quot;font-size: 15px;&quot;&gt;交易金额&lt;br&gt;交易时间&lt;/div&gt;&lt;div style=&quot;font-size: 15px;&quot;&gt;支付时间&lt;/div&gt;&lt;div style=&quot;font-size: 15px;&quot;&gt;收款商户号&lt;br&gt;收单机构名称&lt;br&gt;支付用户信息&lt;/div&gt;" style="whiteSpace=wrap;html=1;rounded=0;shadow=0;labelBackgroundColor=none;strokeWidth=1;fillColor=none;fontFamily=Verdana;fontSize=12;align=left;verticalAlign=top;spacing=10;comic=1;" parent="aE-AudiO0rde04Mhuk1X-30" vertex="1">
          <mxGeometry width="470" height="350" as="geometry" />
        </mxCell>
        <mxCell id="aE-AudiO0rde04Mhuk1X-26" value="&lt;div style=&quot;&quot;&gt;&lt;font style=&quot;font-size: 15px;&quot;&gt;原交易信息模态框（只有非充值交易有）&lt;/font&gt;&lt;/div&gt;" style="whiteSpace=wrap;html=1;rounded=0;shadow=0;labelBackgroundColor=none;strokeWidth=1;fillColor=none;fontFamily=Verdana;fontSize=12;align=left;verticalAlign=middle;spacing=10;comic=1;" parent="aE-AudiO0rde04Mhuk1X-30" vertex="1">
          <mxGeometry width="470" height="40" as="geometry" />
        </mxCell>
        <mxCell id="aE-AudiO0rde04Mhuk1X-31" value="" style="group" parent="1" vertex="1" connectable="0">
          <mxGeometry x="30" y="770" width="470" height="350" as="geometry" />
        </mxCell>
        <mxCell id="aE-AudiO0rde04Mhuk1X-23" value="&lt;div style=&quot;font-size: 15px;&quot;&gt;&lt;font style=&quot;font-size: 15px;&quot;&gt;&lt;br&gt;&lt;/font&gt;&lt;/div&gt;&lt;div style=&quot;font-size: 15px;&quot;&gt;&lt;font style=&quot;font-size: 15px;&quot;&gt;&lt;br&gt;&lt;/font&gt;&lt;/div&gt;&lt;div style=&quot;font-size: 15px;&quot;&gt;&lt;font style=&quot;font-size: 15px;&quot;&gt;&lt;br&gt;&lt;/font&gt;&lt;/div&gt;&lt;div style=&quot;font-size: 15px;&quot;&gt;&lt;font style=&quot;font-size: 15px;&quot;&gt;比列表数据多出&lt;br&gt;监管账号信息&lt;/font&gt;&lt;/div&gt;&lt;div style=&quot;font-size: 15px;&quot;&gt;&lt;font style=&quot;font-size: 15px;&quot;&gt;结算账号信息&lt;/font&gt;&lt;/div&gt;&lt;div style=&quot;font-size: 15px;&quot;&gt;&lt;font style=&quot;font-size: 15px;&quot;&gt;收单账号信息&lt;br&gt;请求时间&lt;/font&gt;&lt;/div&gt;&lt;div style=&quot;font-size: 15px;&quot;&gt;&lt;font style=&quot;font-size: 15px;&quot;&gt;借贷属性&lt;/font&gt;&lt;/div&gt;&lt;div style=&quot;font-size: 15px;&quot;&gt;&lt;font style=&quot;font-size: 15px;&quot;&gt;用户确认时间&lt;br&gt;用户头像&lt;br&gt;用户名&lt;/font&gt;&lt;/div&gt;&lt;div style=&quot;font-size: 15px;&quot;&gt;&lt;br&gt;&lt;/div&gt;" style="whiteSpace=wrap;html=1;rounded=0;shadow=0;labelBackgroundColor=none;strokeWidth=1;fillColor=none;fontFamily=Verdana;fontSize=12;align=left;verticalAlign=top;spacing=10;comic=1;" parent="aE-AudiO0rde04Mhuk1X-31" vertex="1">
          <mxGeometry width="470" height="350" as="geometry" />
        </mxCell>
        <mxCell id="aE-AudiO0rde04Mhuk1X-24" value="&lt;div style=&quot;&quot;&gt;&lt;font style=&quot;font-size: 15px;&quot;&gt;交易详情模态框&lt;/font&gt;&lt;/div&gt;" style="whiteSpace=wrap;html=1;rounded=0;shadow=0;labelBackgroundColor=none;strokeWidth=1;fillColor=none;fontFamily=Verdana;fontSize=12;align=left;verticalAlign=middle;spacing=10;comic=1;" parent="aE-AudiO0rde04Mhuk1X-31" vertex="1">
          <mxGeometry width="470" height="40" as="geometry" />
        </mxCell>
      </root>
    </mxGraphModel>
  </diagram>
</mxfile>
